# xmcd
#
# Track frame offsets:
#	150
#	21917
#	46078
#	61385
#	78834
#	101649
#	122051
#	143940
#	162032
#	163729
#	176853
#	198891
#	215198
#	231727
#	248321
#	268148
#
# Disc length: 3837 seconds
#
# Revision: 2
# Processed by: cddbd v1.5.2PL0 Copyright (c) Steve Scherf et al.
# Submitted via: EZCDAudioConverter 7.1.7.1
#
DISCID=e30efb10
DTITLE=胡彦斌 - 音乐斌潮
DYEAR=2008
DGENRE=International
TTITLE0=男人KTV
TTITLE1=Waiting For You
TTITLE2=你这么晚了还没睡
TTITLE3=巴黎铁塔
TTITLE4=潇湘雨
TTITLE5=月光
TTITLE6=婚礼进行曲
TTITLE7=情不自禁
TTITLE8=到了没
TTITLE9=未满十八岁
TTITLE10=和尚
TTITLE11=皇帝
TTITLE12=想
TTITLE13=红颜
TTITLE14=老爸你别装酷
TTITLE15=和尚(Demo Version) 
EXTD=
EXTT0=
EXTT1=
EXTT2=
EXTT3=
EXTT4=
EXTT5=
EXTT6=
EXTT7=
EXTT8=
EXTT9=
EXTT10=
EXTT11=
EXTT12=
EXTT13=
EXTT14=
EXTT15=
PLAYORDER=
